<svg width="160" height="46" viewBox="0 0 160 46" fill="none" xmlns="http://www.w3.org/2000/svg">
<g id="polkadot-logo-vector-2022 1" opacity="0.6">
<path id="Vector" d="M54.5277 11.9816C52.8099 11.9816 51.1412 12.2024 50.4541 12.3742C49.4725 12.6441 49.2271 13.0859 49.0308 13.9693L45.1535 32.0061C45.0798 32.3742 45.0308 32.6932 45.0308 32.9877C45.0308 33.8711 45.6197 34.4601 46.5768 34.4601C47.632 34.4601 48.0492 33.773 48.27 32.7423L49.3743 27.6135C50.1351 27.7116 51.1657 27.8098 52.6136 27.8098C58.994 27.8098 62.9449 24.3742 62.9449 19.1717C62.9203 14.5828 59.7547 11.9816 54.5277 11.9816ZM52.4418 24.8405C51.4602 24.8405 50.6749 24.8159 49.9878 24.7178L52.0492 15.1472C52.6872 15.0491 53.6443 14.9264 54.6259 14.9264C58.0124 14.9264 59.7301 16.5214 59.7301 19.1717C59.7301 22.5583 57.2762 24.8405 52.4418 24.8405ZM154.773 28.5214C154.258 28.5214 153.914 28.8405 153.276 29.5276C152.147 30.7055 151.436 31.3435 150.528 31.3435C149.718 31.3435 149.301 30.7055 149.301 29.6503C149.301 29.0613 149.423 28.3497 149.571 27.5889L150.699 22.2392H154.111C155.19 22.2392 155.828 21.6257 155.828 20.5214C155.828 19.9079 155.436 19.4417 154.503 19.4417H151.288L151.853 16.9386C151.926 16.5705 151.976 16.227 151.976 15.9325C151.976 15.0736 151.387 14.4601 150.43 14.4601C149.423 14.4601 148.957 15.1472 148.736 16.1779L148.025 19.4417H146.577C145.472 19.4417 144.834 20.0552 144.834 21.1595C144.834 21.773 145.276 22.2392 146.184 22.2392H147.436L146.307 27.5398C146.184 28.1288 146.037 29.0859 146.037 30.0675C146.037 32.5705 147.338 34.3865 150.111 34.3865C151.706 34.3865 153.129 33.5767 154.209 32.6196C155.264 31.6871 156.025 30.5583 156.025 29.8221C156.049 29.1104 155.485 28.5214 154.773 28.5214ZM84.0001 13.7975C84.0001 12.9141 83.3866 12.3251 82.4295 12.3251C81.4234 12.3251 80.9571 13.0122 80.7363 14.0429L76.8835 31.9079C76.7854 32.276 76.7363 32.5951 76.7363 32.8895C76.7363 33.773 77.3498 34.3619 78.2823 34.3619C79.3375 34.3619 79.7792 33.6748 80.0001 32.6441L83.8529 14.7791C83.9019 14.411 84.0001 14.092 84.0001 13.7975ZM138.92 19.1472C133.988 19.1472 130.65 24.0306 130.65 28.6932C130.65 28.7914 130.65 28.865 130.65 28.9632C129.89 30.1411 128.884 31.3435 128.221 31.3435C127.73 31.3435 127.534 30.8773 127.534 30.1656C127.534 29.3067 127.779 27.8589 128.049 26.6073L130.601 14.7791C130.675 14.411 130.724 14.092 130.724 13.7975C130.724 12.9141 130.135 12.3251 129.178 12.3251C128.123 12.3251 127.706 13.0122 127.485 14.0429L126.111 20.4478C125.374 19.6871 124.295 19.1472 122.675 19.1472C119.411 19.1472 116.123 21.6748 114.847 25.5276C113.423 29.184 112.172 31.3435 111.166 31.3435C110.798 31.3435 110.577 31.0245 110.577 30.5092C110.577 28.9632 111.436 25.2086 111.804 23.3926C111.926 22.7055 112 22.4356 112 22.0429C112 20.6932 109.742 19.0981 106.822 19.0981C103.436 19.0981 100.368 21.2331 98.8467 24.4233C96.5645 28.4478 94.4786 31.3435 93.4479 31.3435C92.9817 31.3435 92.8344 30.7546 92.7117 30.2147L91.951 25.9693L96.6627 22.1165C97.1044 21.7484 97.6443 21.2331 97.6443 20.546C97.6443 19.7116 97.0798 19.1717 96.27 19.1717C95.6565 19.1717 95.1412 19.5399 94.6013 19.9816L87.5338 25.8221L89.9142 14.8037C89.9878 14.4356 90.0614 14.1165 90.0614 13.8221C90.0614 12.9386 89.4479 12.3497 88.4909 12.3497C87.4848 12.3497 87.0185 13.0368 86.7976 14.0675L82.9449 31.9325C82.8467 32.3006 82.7976 32.6196 82.7976 32.9141C82.7976 33.7975 83.4111 34.3865 84.3436 34.3865C85.3989 34.3865 85.8406 33.6994 86.0614 32.6687L86.5522 30.3619L89.4479 28.0306L90.1596 31.5889C90.4295 33.0122 91.1657 34.3865 93.0798 34.3865C94.9694 34.3865 96.4663 32.6441 97.9633 30.3129C98.405 32.7668 100.172 34.3865 102.577 34.3865C105.006 34.3865 106.675 32.9386 107.755 31V31.0736C107.755 33.0859 108.761 34.3865 110.552 34.3865C112.172 34.3865 113.497 33.4049 114.699 31.3435C115.387 33.1349 116.908 34.3865 119.018 34.3865C121.522 34.3865 123.288 32.8895 124.442 30.7791V30.9754C124.442 33.184 125.546 34.3865 127.362 34.3865C128.957 34.3865 130.331 33.454 131.485 31.9325C132.368 33.454 133.963 34.3865 136.098 34.3865C141.031 34.3865 144.368 29.503 144.368 24.8159C144.344 21.503 142.356 19.1472 138.92 19.1472ZM108.245 25.4049C107.362 29.2576 105.448 31.4417 103.288 31.4417C101.841 31.4417 101.031 30.3374 101.031 28.6687C101.031 25.4049 103.411 21.8957 106.577 21.8957C107.534 21.8957 108.27 22.1656 108.908 22.5828L108.245 25.4049ZM125.399 23.7607C124.417 28.276 122.16 31.4171 119.706 31.4171C118.356 31.4171 117.546 30.3619 117.546 28.6441C117.546 25.3558 119.828 21.9448 122.871 21.9448C124.049 21.9448 124.933 22.3374 125.571 22.8773L125.399 23.7607ZM136.442 31.4171C134.65 31.4171 133.914 30.1165 133.914 28.4969C133.914 25.503 135.976 22.092 138.552 22.092C140.344 22.092 141.08 23.3926 141.08 25.0122C141.08 28.0306 139.018 31.4171 136.442 31.4171ZM70.6013 19.1472C65.6688 19.1472 62.3314 24.0306 62.3314 28.6932C62.3314 32.0061 64.3436 34.3865 67.7547 34.3865C72.6872 34.3865 76.0246 29.503 76.0246 24.8159C76.0001 21.503 74.0124 19.1472 70.6013 19.1472ZM68.0982 31.4171C66.3068 31.4171 65.5706 30.1165 65.5706 28.4969C65.5706 25.503 67.632 22.092 70.2087 22.092C72.0001 22.092 72.7363 23.3926 72.7363 25.0122C72.7363 28.0306 70.6749 31.4171 68.0982 31.4171Z" fill="white"/>
<path id="Vector_2" d="M23.6073 7.27002C26.7484 7.27002 29.276 8.74241 29.276 10.5829C29.276 12.3989 26.7238 13.8958 23.6073 13.8958C20.4907 13.8958 17.9385 12.4234 17.9385 10.5829C17.9385 8.76695 20.4661 7.27002 23.6073 7.27002ZM23.6073 32.1535C26.7484 32.1535 29.276 33.6258 29.276 35.4663C29.276 37.3068 26.7238 38.7792 23.6073 38.7792C20.4907 38.7792 17.9385 37.3068 17.9385 35.4663C17.9385 33.6258 20.4661 32.1535 23.6073 32.1535ZM9.96308 15.1473C11.5336 12.4234 14.0858 10.9755 15.6563 11.8835C17.2269 12.7915 17.2514 15.7363 15.6809 18.4602C14.1103 21.1841 11.5582 22.632 9.98762 21.724C8.41707 20.816 8.39253 17.8712 9.96308 15.1473ZM31.5091 27.589C33.0796 24.8651 35.6318 23.4173 37.2023 24.3252C38.7729 25.2332 38.7974 28.178 37.2269 30.9019C35.6563 33.6259 33.1042 35.0737 31.5336 34.1657C29.9631 33.2578 29.9631 30.313 31.5091 27.589ZM9.98762 24.3252C11.5582 23.4173 14.1103 24.8651 15.6809 27.589C17.2514 30.313 17.2269 33.2578 15.6563 34.1657C14.0858 35.0737 11.5336 33.6259 9.96308 30.9019C8.39253 28.178 8.41707 25.2332 9.98762 24.3252ZM31.5336 11.8835C33.1042 10.9755 35.6563 12.4234 37.2269 15.1473C38.7974 17.8712 38.7974 20.816 37.2023 21.724C35.6318 22.632 33.0796 21.1841 31.5091 18.4602C29.9631 15.7363 29.9631 12.7915 31.5336 11.8835Z" fill="white"/>
</g>
</svg>
