<svg width="42" height="42" viewBox="0 0 42 42" fill="none" xmlns="http://www.w3.org/2000/svg">
<g id="Group">
<path id="Vector" d="M0 0V35.3554H24.9477V41.9999H35.533V35.3554H41.9999V0H0ZM9.4882 2.46093H39.5389V6.64451H9.4882V2.46093ZM2.46101 2.46093H7.02735V6.64451H2.46101V2.46093ZM2.46101 9.10544H39.5389V32.8944H35.533V16.9401L30.2403 11.0594L24.9477 16.9401V32.8944H2.46101V9.10544ZM30.2403 14.7381L33.0629 17.8743H27.4177L30.2403 14.7381ZM27.4087 20.3353H33.0719V34.1229H27.4087V20.3353ZM27.4087 36.5837H33.0719V39.5389H27.4087V36.5837Z" fill="white"/>
<path id="Vector_2" d="M21 15.1349H7V17.5958H21V15.1349ZM21 20.3848H7V22.8458H21V20.3848ZM14.875 25.6348H7V28.0957H14.875V25.6348Z" fill="white"/>
</g>
</svg>
