<svg width="36" height="36" viewBox="0 0 36 36" fill="none" xmlns="http://www.w3.org/2000/svg">
<g id="logos:bitcoin" clip-path="url(#clip0_177_507)">
<path id="Vector" d="M35.4615 22.3529C33.0566 32.0009 23.2816 37.8658 13.6474 35.4607C3.99907 33.0557 -1.86583 23.2812 0.539278 13.6471C2.94425 3.99907 12.705 -1.86583 22.3533 0.539279C31.9875 2.93019 37.8666 12.7047 35.4615 22.3529Z" fill="url(#paint0_linear_177_507)"/>
<path id="Vector_2" d="M26.5704 15.757C26.9219 13.3664 25.1079 12.0727 22.6047 11.2149L23.4204 7.96642L21.4516 7.47423L20.6641 10.6383C20.1438 10.5117 19.6094 10.3852 19.075 10.2727L19.8625 7.09454L17.8938 6.60236L17.0922 9.83673C16.6563 9.73829 16.2344 9.63986 15.8266 9.54142V9.52736L13.0985 8.85236L12.5782 10.9617C12.5782 10.9617 14.0407 11.2992 14.0125 11.3133C14.8141 11.5102 14.9547 12.0445 14.9266 12.4664L13.9985 16.1649C14.0547 16.1789 14.125 16.193 14.2094 16.2352C14.1391 16.2211 14.0688 16.207 13.9985 16.1789L12.7047 21.3539C12.6063 21.593 12.3532 21.9586 11.8047 21.818C11.8188 21.8461 10.3704 21.4664 10.3704 21.4664L9.38599 23.7305L11.9594 24.3774C12.4375 24.5039 12.9016 24.6164 13.3657 24.743L12.55 28.0195L14.5188 28.5117L15.3344 25.2633C15.8688 25.4039 16.4032 25.5445 16.9094 25.6711L16.1079 28.9055L18.0766 29.3977L18.8922 26.1211C22.2672 26.7539 24.7985 26.5008 25.8532 23.4492C26.711 21.0024 25.811 19.582 24.0391 18.6539C25.3469 18.3586 26.3172 17.5008 26.5704 15.757ZM22.0563 22.0852C21.4516 24.532 17.3172 23.2102 15.9813 22.8727L17.0641 18.5274C18.4 18.8649 22.7032 19.5258 22.0563 22.0852ZM22.675 15.7149C22.1125 17.9508 18.6813 16.8117 17.5704 16.5305L18.5547 12.593C19.6657 12.8742 23.2516 13.3945 22.675 15.7149Z" fill="white"/>
</g>
<defs>
<linearGradient id="paint0_linear_177_507" x1="1799.03" y1="-0.863999" x2="1799.03" y2="3599.64" gradientUnits="userSpaceOnUse">
<stop stop-color="#F9AA4B"/>
<stop offset="1" stop-color="#F7931A"/>
</linearGradient>
<clipPath id="clip0_177_507">
<rect width="36" height="36" fill="white"/>
</clipPath>
</defs>
</svg>
