<svg width="20" height="18" viewBox="0 0 20 18" fill="none" xmlns="http://www.w3.org/2000/svg">
<g id="Group">
<path id="Vector" d="M18.9427 10.0264C18.2385 9.21003 17.2736 8.80185 16.0469 8.80185C15.2228 8.80185 14.5054 8.99329 13.8937 9.37947C13.2842 9.76675 12.8309 10.3147 12.5404 11.0232C12.2489 11.7307 12.1025 12.4843 12.1025 13.2809C12.1025 14.0775 12.25 14.8289 12.5404 15.5375C12.8309 16.246 13.2853 16.7939 13.8937 17.179C14.5054 17.5652 15.2228 17.7599 16.0469 17.7599C17.2736 17.7599 18.2385 17.3495 18.9427 16.5343C19.6468 15.719 20 14.6342 20 13.2809C20 11.9287 19.6468 10.8395 18.9427 10.0264ZM17.2659 15.6948C16.9997 15.9974 16.6102 16.1503 16.103 16.1503C15.5892 16.1503 15.2107 15.9974 14.9532 15.6948C14.544 15.2228 14.3415 14.4658 14.3415 13.425C14.3415 12.3809 14.544 11.6217 14.9532 11.153C15.2107 10.8428 15.5892 10.6876 16.103 10.6876C16.6102 10.6876 16.9986 10.8373 17.2659 11.1398C17.6741 11.6206 17.8787 12.3809 17.8787 13.425C17.8787 14.4658 17.6741 15.2239 17.2659 15.6948ZM6.84014 1.22456C6.13599 0.408186 5.17108 0 3.94433 0C3.12025 0 2.4029 0.19144 1.79118 0.577621C1.18165 0.964903 0.728353 1.51282 0.437892 2.22137C0.146331 2.92882 0 3.68247 0 4.47904C0 5.27561 0.147431 6.02817 0.437892 6.73561C0.703832 7.41226 1.17768 7.98704 1.79118 8.37716C2.4029 8.76334 3.12025 8.95918 3.94433 8.95918C5.17108 8.95918 6.13599 8.54879 6.84014 7.73242C7.54428 6.91715 7.89746 5.83232 7.89746 4.47904C7.89746 3.12576 7.54428 2.03763 6.84014 1.22456ZM5.16338 6.89295C4.89713 7.19551 4.50765 7.34844 4.00044 7.34844C3.48663 7.34844 3.10815 7.19551 2.8507 6.89295C2.44141 6.42095 2.23897 5.66399 2.23897 4.62317C2.23897 3.58015 2.44141 2.82099 2.8507 2.35119C3.10815 2.03983 3.48663 1.8858 4.00044 1.8858C4.50765 1.8858 4.89603 2.03543 5.16338 2.33909C5.57157 2.81879 5.77621 3.58015 5.77621 4.62317C5.77621 5.66509 5.57157 6.42205 5.16338 6.89295ZM16.0062 0.0792167L6.45505 17.7401H4.09616L13.6231 0.0792167H16.0062Z" fill="white"/>
</g>
</svg>
