<svg width="46" height="46" viewBox="0 0 46 46" fill="none" xmlns="http://www.w3.org/2000/svg">
<g id="Group">
<path id="Vector" d="M12.2205 21.6516C13.1283 21.6516 13.967 21.3506 14.6426 20.8434L16.9944 22.4112L12.8928 29.7941C12.6707 29.7563 12.4458 29.7372 12.2205 29.7368C9.99117 29.7368 8.17749 31.5506 8.17749 33.7798C8.17749 36.009 9.99117 37.8224 12.2205 37.8224C14.4493 37.8224 16.2631 36.0091 16.2631 33.7798C16.2631 32.7547 15.8787 31.8183 15.2481 31.1049L19.2444 23.9111L24.4725 27.3964C24.3901 27.7209 24.3485 28.0544 24.3486 28.3892C24.3486 30.6185 26.1623 32.4322 28.3913 32.4322C30.6205 32.4322 32.4342 30.6185 32.4342 28.3892C32.4342 27.3651 32.0502 26.4292 31.4203 25.716L35.8107 17.8417L38.0372 19.3146C37.9555 19.6379 37.9142 19.9701 37.9143 20.3036C37.9143 22.5329 39.728 24.3466 41.9573 24.3466C44.1862 24.3466 45.9999 22.5329 45.9999 20.3036C45.9999 18.0743 44.1861 16.261 41.9573 16.261C41.082 16.26 40.2303 16.5446 39.5315 17.0718L37.1271 15.4812L41.2828 8.02835C41.5022 8.06518 41.727 8.08558 41.9573 8.08558C44.1862 8.08558 45.9999 6.2719 45.9999 4.04261C45.9999 1.81368 44.1862 0 41.9573 0C39.728 0 37.9143 1.81368 37.9143 4.04261C37.9143 5.06701 38.298 6.003 38.9282 6.71618L34.8727 13.9897L29.6161 10.5121C29.6978 10.1888 29.739 9.85655 29.7389 9.52308C29.7389 7.29388 27.9255 5.48011 25.6963 5.48011C23.4671 5.48011 21.6533 7.29388 21.6533 9.52308C21.6533 10.5478 22.0376 11.4845 22.6686 12.1981L18.3076 20.0475L16.1392 18.6015C16.2216 18.277 16.2632 17.9435 16.2631 17.6087C16.2631 15.3795 14.4493 13.5658 12.2205 13.5658C9.99117 13.5658 8.17749 15.3795 8.17749 17.6087C8.17749 19.8376 9.99117 21.6516 12.2205 21.6516ZM12.2205 35.1275C11.4771 35.1275 10.8728 34.5228 10.8728 33.7798C10.8728 33.0368 11.4771 32.4322 12.2205 32.4322C12.9635 32.4322 13.5678 33.0368 13.5678 33.7798C13.5678 34.5228 12.9634 35.1275 12.2205 35.1275ZM41.9573 18.9563C42.7003 18.9563 43.3046 19.561 43.3046 20.304C43.3046 21.047 42.7002 21.6516 41.9573 21.6516C41.2139 21.6516 40.6096 21.047 40.6096 20.304C40.6096 19.561 41.2139 18.9563 41.9573 18.9563ZM41.9573 2.69531C42.7003 2.69531 43.3046 3.29996 43.3046 4.04297C43.3046 4.78598 42.7002 5.39062 41.9573 5.39062C41.2139 5.39062 40.6096 4.78598 40.6096 4.04297C40.6096 3.29996 41.2139 2.69531 41.9573 2.69531ZM28.3913 29.7372C27.6482 29.7372 27.044 29.1326 27.044 28.3895C27.044 27.6463 27.6482 27.0419 28.3913 27.0419C29.1345 27.0419 29.7389 27.6463 29.7389 28.3895C29.7389 29.1326 29.1345 29.7372 28.3913 29.7372ZM25.6963 8.17542C26.4393 8.17542 27.044 8.78007 27.044 9.52308C27.044 10.2664 26.4393 10.8707 25.6963 10.8707C24.9529 10.8707 24.3486 10.2664 24.3486 9.52308C24.3486 8.78007 24.9529 8.17542 25.6963 8.17542ZM25.0235 13.5088C25.564 13.6011 26.1177 13.5819 26.6505 13.4522C27.1833 13.3226 27.6839 13.0853 28.1216 12.755L33.5566 16.3506L29.0658 24.4042C28.843 24.3661 28.6173 24.3469 28.3913 24.3467C27.4833 24.3467 26.6445 24.6476 25.969 25.1548L20.5577 21.5474L25.0235 13.5088ZM12.2205 16.261C12.9635 16.261 13.5678 16.8656 13.5678 17.6087C13.5678 18.3517 12.9634 18.9563 12.2205 18.9563C11.4771 18.9563 10.8728 18.3517 10.8728 17.6087C10.8728 16.8656 11.4771 16.261 12.2205 16.261Z" fill="white"/>
<path id="Vector_2" d="M41.7153 37.5436L39.8096 39.4496L40.8782 40.5179H5.48227V4.51091L6.66209 5.45463L8.34568 3.35031L4.12338 0.000488281L0 3.36154L1.71125 5.4434L2.78722 4.55934V43.2132H40.7196L39.8415 44.0352L41.6833 45.9981L46 41.8975L41.7153 37.5436Z" fill="white"/>
</g>
</svg>
