<svg width="242" height="149" viewBox="0 0 242 149" fill="none" xmlns="http://www.w3.org/2000/svg">
<path id="Vector 11" d="M0 136.715C4.24561 132.228 14.5627 124.434 22.6433 125.357C41.0409 127.461 33.0214 148.073 45.2866 148.073C54.7213 147.232 58.5895 127.545 58.9669 95.911C59.9103 84.8335 64.1292 58.8927 75.9493 58.8927C87.271 58.8927 76.4211 83.7118 88.6862 88.7597C89.9441 89.3206 91.9883 90.863 98.5926 91.2837C108.971 91.9447 102.838 122.413 118.405 123.254C121.865 123.254 128.972 120.898 129.727 111.475C130.671 99.6969 130.199 68.1473 136.331 64.3613C142.464 60.5753 155.673 56.7894 154.257 34.915C152.842 13.0405 154.257 0 164.635 0C175.014 0 178.316 8.8339 179.731 36.5976C180.517 39.9629 184.543 46.8618 194.355 47.5348C206.62 48.3761 196.242 117.785 211.809 117.785C227.376 117.785 225.489 84.9737 242 90.863V148.073H45.2866H0V136.715Z" fill="url(#paint0_linear_177_347)"/>
<defs>
<linearGradient id="paint0_linear_177_347" x1="121" y1="0" x2="121" y2="148.073" gradientUnits="userSpaceOnUse">
<stop stop-color="#13CD47" stop-opacity="0.29"/>
<stop offset="1" stop-color="#13CD47" stop-opacity="0"/>
</linearGradient>
</defs>
</svg>
