<svg width="36" height="42" viewBox="0 0 36 42" fill="none" xmlns="http://www.w3.org/2000/svg">
<g id="Group">
<path id="Vector" d="M31.0547 5.34778C27.076 4.63477 23.412 2.46192 21.582 1.23022C20.3864 0.425414 18.9959 0 17.5607 0C16.1255 0 14.7349 0.425414 13.5394 1.23022C11.7095 2.46192 8.04546 4.63485 4.06678 5.34786C1.71035 5.77008 0 7.80897 0 10.1957V20.0976C0 23.3687 0.915141 26.5575 2.72007 29.5754C4.13208 31.9363 6.08861 34.1928 8.53511 36.282C12.6487 39.795 16.7221 41.6269 16.8934 41.7031L17.5607 42L18.2281 41.7031C18.3994 41.6269 22.4728 39.795 26.5864 36.282C29.0328 34.1928 30.9894 31.9363 32.4014 29.5754C34.2064 26.5575 35.1215 23.3687 35.1215 20.0976V10.1956C35.1215 7.80888 33.4112 5.77 31.0547 5.34778ZM31.839 20.0975C31.839 24.9743 29.3753 29.5618 24.5163 33.7331C21.6918 36.1577 18.8241 37.7381 17.5608 38.3796C14.6568 36.9041 3.28232 30.4606 3.28232 20.0976V10.1956C3.28232 9.40029 3.85571 8.72025 4.64576 8.57866C9.21637 7.75958 13.3282 5.329 15.3722 3.95317C16.0241 3.51438 16.781 3.2824 17.5607 3.2824C18.3404 3.2824 19.0971 3.51438 19.749 3.95325C21.7932 5.32908 25.9049 7.75966 30.4755 8.57883C31.2655 8.72041 31.839 9.40037 31.839 10.1957V20.0975Z" fill="white"/>
<path id="Vector_2" d="M15.0189 24.1525L9.40965 18.9011L7.16626 21.2972L15.2305 28.847L28.0582 14.4625L25.6084 12.2779L15.0189 24.1525Z" fill="white"/>
</g>
</svg>
