<svg width="243" height="150" viewBox="0 0 243 150" fill="none" xmlns="http://www.w3.org/2000/svg">
<path id="Vector 12" d="M0.472806 137.54C4.72383 133.047 15.0541 125.243 23.1449 126.168C41.566 128.274 33.5363 148.913 45.8171 148.913C55.2638 148.07 59.1369 128.358 59.5148 96.684C60.4595 85.5924 64.6837 59.6185 76.5189 59.6185C87.855 59.6185 76.9913 84.4692 89.272 89.5236C90.5316 90.0852 92.5783 91.6296 99.191 92.0508C109.582 92.7127 103.442 123.219 119.029 124.062C122.493 124.062 129.609 121.703 130.365 112.268C131.31 100.475 130.838 68.8849 136.978 65.0941C143.118 61.3033 156.344 57.5125 154.927 35.6102C153.51 13.7079 154.927 0.65078 165.318 0.65078C175.709 0.65078 179.016 9.49594 180.433 37.295C181.22 40.6646 185.251 47.5723 195.075 48.2462C207.356 49.0886 196.965 118.586 212.552 118.586C228.139 118.586 226.249 85.7328 242.781 91.6296" stroke="#13CD47" stroke-width="1.3"/>
</svg>
