<svg width="46" height="46" viewBox="0 0 46 46" fill="none" xmlns="http://www.w3.org/2000/svg">
<g id="Group">
<path id="Vector" d="M12.0348 1.16002L1.16011 12.0347H9.31611C10.8176 12.0347 12.0348 10.8175 12.0348 9.31602V1.16002Z" stroke="white" stroke-width="2.3" stroke-miterlimit="10" stroke-linecap="round" stroke-linejoin="round"/>
<path id="Vector_2" d="M28.3468 6.59734H17.4722" stroke="white" stroke-width="2.3" stroke-miterlimit="10" stroke-linecap="round" stroke-linejoin="round"/>
<path id="Vector_3" d="M28.3468 12.0347H17.4722" stroke="white" stroke-width="2.3" stroke-miterlimit="10" stroke-linecap="round" stroke-linejoin="round"/>
<path id="Vector_4" d="M28.3468 17.472H6.59746" stroke="white" stroke-width="2.3" stroke-miterlimit="10" stroke-linecap="round" stroke-linejoin="round"/>
<path id="Vector_5" d="M22.9095 22.9093H6.59771" stroke="white" stroke-width="2.3" stroke-miterlimit="10" stroke-linecap="round" stroke-linejoin="round"/>
<path id="Vector_6" d="M22.9095 28.3467H6.59771" stroke="white" stroke-width="2.3" stroke-miterlimit="10" stroke-linecap="round" stroke-linejoin="round"/>
<path id="Vector_7" d="M12.0348 39.1307L12.7915 37.9535C13.8005 36.384 16.0948 36.384 17.1038 37.9535C17.3359 38.3145 17.6549 38.6115 18.0316 38.8172C18.4084 39.0229 18.8307 39.1307 19.2599 39.1307H22.0032" stroke="white" stroke-width="2.3" stroke-miterlimit="10" stroke-linecap="round" stroke-linejoin="round"/>
<path id="Vector_8" d="M38.9784 24.2356C34.4739 32.0375 29.5926 37.6522 28.0756 36.7763C26.5585 35.9005 28.9803 28.8657 33.4847 21.0638C37.9892 13.2619 42.8705 7.64719 44.3875 8.52305C45.9046 9.39892 43.4829 16.4336 38.9784 24.2356Z" stroke="white" stroke-width="2.3" stroke-miterlimit="10" stroke-linecap="round" stroke-linejoin="round"/>
<path id="Vector_9" d="M26.7161 39.1307L28.0755 36.7762" stroke="white" stroke-width="2.3" stroke-miterlimit="10" stroke-linecap="round" stroke-linejoin="round"/>
<path id="Vector_10" d="M33.4847 21.0638L38.9784 24.2356" stroke="white" stroke-width="2.3" stroke-miterlimit="10" stroke-linecap="round" stroke-linejoin="round"/>
<path id="Vector_11" d="M33.7841 20.5499V1.16H12.0348L1.16011 12.0347V44.8399H33.7841V32.0768" stroke="white" stroke-width="2.3" stroke-miterlimit="10" stroke-linecap="round" stroke-linejoin="round"/>
</g>
</svg>
